#     #                            
 #  #  # #####    ##   ##### #    # 
 #  #  # #    #  #  #    #   #    # 
 #  #  # #    # #    #   #   ###### 
 #  #  # #####  ######   #   #    # 
 #  #  # #   #  #    #   #   #    # 
  ## ##  #    # #    #   #   #    # 






File Name

Circle of Pain 2010 BRRip H264 LKRG-Wrath.mp4

File Size
Format : MPEG-4
Format profile : Base Media
Codec ID : isom
File size : 1.60 GiB
Duration : 1h 29mn
Overall bit rate : 2 570 Kbps
Video
ID : 1
Format : AVC
Format/Info : Advanced Video Codec
Format profile : High@L4.1
Format settings, CABAC : Yes
Format settings, ReFrames : 3 frames
Codec ID : avc1
Codec ID/Info : Advanced Video Coding
Duration : 1h 28mn
Bit rate mode : Variable
Bit rate : 2 004 Kbps
Maximum bit rate : 12.3 Mbps
Width : 1 280 pixels
Height : 720 pixels
Display aspect ratio : 16:9
Frame rate mode : Constant
Frame rate : 23.976 fps
Resolution : 24 bits
Colorimetry : 4:2:0
Scan type : Progressive
Bits/(Pixel*Frame) : 0.091
Stream size : 1.24 GiB (77%)

Audio #1
ID : 2
Format : AAC
Format/Info : Advanced Audio Codec
Format version : Version 4
Format profile : LC
Format settings, SBR : No
Codec ID : 40
Duration : 1h 29mn
Bit rate mode : Variable
Bit rate : 128 Kbps
Maximum bit rate : 138 Kbps
Channel(s) : 2 channels
Channel positions : L R
Sampling rate : 48.0 KHz
Resolution : 16 bits
Stream size : 81.7 MiB (5%)

Audio #2
ID : 3
Format : AAC
Format/Info : Advanced Audio Codec
Format version : Version 4
Format profile : LC
Format settings, SBR : No
Codec ID : 40
Duration : 1h 29mn
Bit rate mode : Variable
Bit rate : 448 Kbps
Maximum bit rate : 468 Kbps
Channel(s) : 6 channels
Channel positions : Front: L C R, Rear: L R, LFE
Sampling rate : 48.0 KHz
Resolution : 16 bits
Stream size : 286 MiB (17%)

English SRT : N/A

Language : English


Screenshots
 
http://postimg.com/image/17000/16488.jpg 
http://postimg.com/image/17000/16489.jpg


 #     #                            
 #  #  # #####    ##   ##### #    # 
 #  #  # #    #  #  #    #   #    # 
 #  #  # #    # #    #   #   ###### 
 #  #  # #####  ######   #   #    # 
 #  #  # #   #  #    #   #   #    # 
  ## ##  #    # #    #   #   #    #